<svg width="145" height="23" viewBox="0 0 145 23" fill="none" xmlns="http://www.w3.org/2000/svg">
<path d="M0.56 22.5L0.944 14.724L0.56 0.419998H12.56L12.208 3.844H5.008L4.816 9.508H11.216L10.864 12.9H4.688L4.656 14.18L4.88 19.108H12.624L12.272 22.5H0.56ZM29.238 22.66L27.67 16.42H20.022L18.326 22.5L14.23 22.18L17.046 14.404L21.334 0.643999L27.062 0.227999L31.19 13.924L33.846 21.956L29.238 22.66ZM24.182 4.388H23.766L21.014 13.028H26.71L24.182 4.388ZM35.5605 19.236L45.8645 4.004L35.4325 4.708L36.2005 0.292L43.4965 0.643999L50.8245 0.259998L50.3445 3.684L40.0085 18.98L51.2405 18.276L50.6005 22.692L42.8885 22.34L35.0165 22.692L35.5605 19.236ZM60.7123 9.86H61.0963L63.4643 5.508L65.8643 0.227999L69.7683 0.803999L66.8243 6.148L62.6643 14.276L63.0163 22.5H58.5363L58.8563 14.82L54.8243 6.628L51.7523 1.028L56.2643 0.227999L58.3443 5.092L60.7123 9.86ZM72.435 22.5L72.819 14.724L72.435 1.06L76.979 0.259998L76.531 14.18L76.755 19.364L83.315 18.852L82.963 22.5H72.435ZM95.02 0.0999985C97.5373 0.0999985 99.6067 1.06 101.228 2.98C102.871 4.9 103.692 7.34267 103.692 10.308C103.692 14.0627 102.721 17.092 100.78 19.396C98.8387 21.7 96.2893 22.852 93.132 22.852C90.6787 22.852 88.62 21.8707 86.956 19.908C85.292 17.924 84.46 15.4813 84.46 12.58C84.46 8.95333 85.452 5.96667 87.436 3.62C89.42 1.27333 91.948 0.0999985 95.02 0.0999985ZM99.34 12.1C99.34 6.70267 97.5693 4.004 94.028 4.004C92.4067 4.004 91.1267 4.612 90.188 5.828C89.2707 7.02267 88.812 8.82533 88.812 11.236C88.812 13.6253 89.3027 15.5987 90.284 17.156C91.2867 18.692 92.5987 19.46 94.22 19.46C95.8627 19.46 97.1213 18.8093 97.996 17.508C98.892 16.1853 99.34 14.3827 99.34 12.1ZM120.144 22.66L118.576 16.42H110.928L109.232 22.5L105.136 22.18L107.952 14.404L112.24 0.643999L117.968 0.227999L122.096 13.924L124.752 21.956L120.144 22.66ZM115.088 4.388H114.672L111.92 13.028H117.616L115.088 4.388ZM144.707 0.355999L144.291 14.18L144.643 21.796L140.867 22.596L131.331 7.172V14.18L131.779 22.5H127.779L128.163 14.724L127.779 0.515999L131.619 0.323999L141.123 15.972L140.803 0.835999L144.707 0.355999Z" fill="#AE2BFF"/>
</svg>
